<svg width="38" height="45" viewBox="0 0 38 45" fill="none" xmlns="http://www.w3.org/2000/svg">
<path d="M38 42.2336C35.1313 43.9988 31.849 45 28.3399 45C24.8308 45 27.1524 44.9737 26.5787 44.9078C26.2317 44.8814 25.8982 44.8287 25.5646 44.7761C23.6299 44.4731 21.7886 43.8671 20.0674 42.9977V44.3545C15.1973 43.0372 11.0211 39.7175 8.25913 35.2254V39.9283C3.21559 35.805 0 29.5345 0 22.5C0 15.4655 3.21559 9.19497 8.25913 5.07172V9.77459C11.0211 5.28249 15.184 1.976 20.0674 0.645492V2.00234C21.7886 1.1329 23.6299 0.526933 25.5646 0.223947C25.8982 0.171254 26.2451 0.131734 26.5787 0.0922137C27.1657 0.0263472 27.7395 0 28.3399 0C31.7823 0 35.0246 0.974825 37.8532 2.67418L34.2374 11.6057C32.6763 10.5386 30.875 9.93267 28.9403 9.93267C27.0056 9.93267 27.7528 9.98536 27.1791 10.1039C24.2037 10.6967 21.6552 12.7386 20.0674 15.5972V11.632C16.9185 13.8056 14.8104 17.8498 14.8104 22.4737C14.8104 27.0975 16.9185 31.1285 20.0674 33.3153V29.3501C21.6552 32.2087 24.2037 34.2638 27.1791 34.8434C27.7528 34.9619 28.3399 35.0146 28.9403 35.0146C30.9284 35.0146 32.783 34.3691 34.3708 33.2494L38 42.1941V42.2336Z" fill="white"/>
</svg>
